<?xml version="1.0" encoding="utf-8"?>
<!-- Generator: Adobe Illustrator 28.3.0, SVG Export Plug-In . SVG Version: 6.00 Build 0)  -->
<svg version="1.1" id="Layer_1" xmlns="http://www.w3.org/2000/svg" xmlns:xlink="http://www.w3.org/1999/xlink" x="0px" y="0px"
	 viewBox="0 0 512 512" style="enable-background:new 0 0 512 512;" xml:space="preserve">
<style type="text/css">
	.st0{fill:#E21E6E;}
</style>
<g>
	<path class="st0" d="M142.9,67.2c15.5,0,30.6,3,45,8.9c14.4,6,27.4,14.6,38.4,25.6l12,12l17.7,17.7l17.7-17.7l12-12
		c11-11,24-19.7,38.4-25.6c14.3-5.9,29.5-8.9,45-8.9c6.5,0,13,0.5,19.4,1.6c27.5,4.6,52.6,18.8,70.6,40.1
		c18,21.3,27.9,48.3,27.9,76.2v5.8c0,34.5-14.4,67.8-39.7,91.2L266.6,450.8c-2.9,2.7-6.7,4.2-10.6,4.2c-4,0-7.8-1.5-10.6-4.2
		L64.6,282.1C39.4,258.7,25,225.4,25,190.9v-5.8c0-27.9,9.9-55,27.9-76.2C71,87.6,96,73.3,123.5,68.8
		C129.9,67.7,136.5,67.2,142.9,67.2 M369.1,42.2C331.4,42.1,295,57,268,84l-12,12l-12-12c-27-27-63.4-41.8-101.1-41.8
		c-7.8,0-15.7,0.6-23.5,1.9C50.5,55.6,0,115.2,0,185.1v5.8c0,41.5,17.2,81.2,47.6,109.5l180.7,168.7c7.5,7,17.4,10.9,27.7,10.9
		c10.3,0,20.2-3.9,27.7-10.9l180.7-168.7c30.4-28.3,47.6-68,47.6-109.5v-5.8c0-69.9-50.5-129.5-119.4-141
		C384.8,42.8,376.9,42.2,369.1,42.2L369.1,42.2z"/>
</g>
</svg>
